<mxfile host="Electron" agent="Mozilla/5.0 (Windows NT 10.0; Win64; x64) AppleWebKit/537.36 (KHTML, like Gecko) draw.io/28.1.2 Chrome/138.0.7204.243 Electron/37.4.0 Safari/537.36" version="28.1.2">
  <diagram name="Page-1" id="XYghsW9-e6iv7vUhMYSA">
    <mxGraphModel dx="2486" dy="971" grid="1" gridSize="10" guides="1" tooltips="1" connect="1" arrows="1" fold="1" page="1" pageScale="1" pageWidth="827" pageHeight="1169" math="0" shadow="0">
      <root>
        <mxCell id="0" />
        <mxCell id="1" parent="0" />
        <mxCell id="UTH--3E0aOIOt3p0cTCI-5" value="" style="group" parent="1" vertex="1" connectable="0">
          <mxGeometry x="-100" y="255" width="200" height="90" as="geometry" />
        </mxCell>
        <mxCell id="UTH--3E0aOIOt3p0cTCI-7" value="&lt;div style=&quot;box-sizing: border-box ; width: 100% ; padding: 2px&quot;&gt;&lt;br&gt;&lt;/div&gt;" style="verticalAlign=top;align=center;overflow=fill;html=1;rounded=0;shadow=0;comic=0;labelBackgroundColor=none;strokeColor=#000000;strokeWidth=1;fillColor=#ffffff;fontFamily=Verdana;fontSize=12;fontColor=#000000;" parent="UTH--3E0aOIOt3p0cTCI-5" vertex="1">
          <mxGeometry width="200" height="90" as="geometry" />
        </mxCell>
        <mxCell id="UTH--3E0aOIOt3p0cTCI-8" value="Joueurs" style="rounded=0;whiteSpace=wrap;html=1;" parent="UTH--3E0aOIOt3p0cTCI-5" vertex="1">
          <mxGeometry width="200" height="20" as="geometry" />
        </mxCell>
        <mxCell id="UTH--3E0aOIOt3p0cTCI-9" value="&lt;div&gt;&lt;div&gt;Pseudo&lt;/div&gt;&lt;/div&gt;&lt;div&gt;ScoreTotal&lt;/div&gt;&lt;div&gt;ThèmesPréférés&lt;/div&gt;" style="text;html=1;strokeColor=none;fillColor=none;align=left;verticalAlign=top;whiteSpace=wrap;rounded=0;" parent="UTH--3E0aOIOt3p0cTCI-5" vertex="1">
          <mxGeometry x="11" y="20" width="90" height="60" as="geometry" />
        </mxCell>
        <mxCell id="UTH--3E0aOIOt3p0cTCI-10" value="&lt;div&gt;&lt;div&gt;texte&lt;/div&gt;&lt;/div&gt;&lt;div&gt;numérique&lt;/div&gt;&lt;div&gt;texte&lt;/div&gt;&lt;div&gt;&lt;br&gt;&lt;/div&gt;" style="text;html=1;strokeColor=none;fillColor=none;align=left;verticalAlign=top;whiteSpace=wrap;rounded=0;" parent="UTH--3E0aOIOt3p0cTCI-5" vertex="1">
          <mxGeometry x="101" y="20" width="90" height="50" as="geometry" />
        </mxCell>
        <mxCell id="UTH--3E0aOIOt3p0cTCI-11" value="" style="group" parent="1" vertex="1" connectable="0">
          <mxGeometry x="200" y="260" width="180" height="80" as="geometry" />
        </mxCell>
        <mxCell id="UTH--3E0aOIOt3p0cTCI-12" value="&lt;div style=&quot;box-sizing: border-box ; width: 100% ; padding: 2px&quot;&gt;&lt;br&gt;&lt;/div&gt;" style="verticalAlign=top;align=center;overflow=fill;html=1;rounded=1;shadow=0;comic=0;labelBackgroundColor=none;strokeColor=#000000;strokeWidth=1;fillColor=#ffffff;fontFamily=Verdana;fontSize=12;fontColor=#000000;" parent="UTH--3E0aOIOt3p0cTCI-11" vertex="1">
          <mxGeometry width="180" height="80" as="geometry" />
        </mxCell>
        <mxCell id="UTH--3E0aOIOt3p0cTCI-13" value="" style="endArrow=none;html=1;entryX=1;entryY=0.25;entryDx=0;entryDy=0;exitX=0;exitY=0.25;exitDx=0;exitDy=0;" parent="UTH--3E0aOIOt3p0cTCI-11" source="UTH--3E0aOIOt3p0cTCI-12" target="UTH--3E0aOIOt3p0cTCI-12" edge="1">
          <mxGeometry width="50" height="50" relative="1" as="geometry">
            <mxPoint x="-280" y="155" as="sourcePoint" />
            <mxPoint x="-230" y="105" as="targetPoint" />
          </mxGeometry>
        </mxCell>
        <mxCell id="UTH--3E0aOIOt3p0cTCI-14" value="Jouer" style="text;html=1;strokeColor=none;fillColor=none;align=center;verticalAlign=middle;whiteSpace=wrap;rounded=0;" parent="UTH--3E0aOIOt3p0cTCI-11" vertex="1">
          <mxGeometry x="21" width="138" height="20" as="geometry" />
        </mxCell>
        <mxCell id="UTH--3E0aOIOt3p0cTCI-16" value="" style="group" parent="1" vertex="1" connectable="0">
          <mxGeometry x="460" y="260" width="200" height="90" as="geometry" />
        </mxCell>
        <mxCell id="UTH--3E0aOIOt3p0cTCI-17" value="&lt;div style=&quot;box-sizing: border-box ; width: 100% ; padding: 2px&quot;&gt;&lt;br&gt;&lt;/div&gt;" style="verticalAlign=top;align=center;overflow=fill;html=1;rounded=0;shadow=0;comic=0;labelBackgroundColor=none;strokeColor=#000000;strokeWidth=1;fillColor=#ffffff;fontFamily=Verdana;fontSize=12;fontColor=#000000;" parent="UTH--3E0aOIOt3p0cTCI-16" vertex="1">
          <mxGeometry width="200" height="90" as="geometry" />
        </mxCell>
        <mxCell id="UTH--3E0aOIOt3p0cTCI-80" style="edgeStyle=orthogonalEdgeStyle;rounded=0;orthogonalLoop=1;jettySize=auto;html=1;exitX=0.5;exitY=0;exitDx=0;exitDy=0;endArrow=none;endFill=0;" parent="UTH--3E0aOIOt3p0cTCI-16" source="UTH--3E0aOIOt3p0cTCI-18" edge="1">
          <mxGeometry relative="1" as="geometry">
            <mxPoint x="60" y="-80" as="targetPoint" />
          </mxGeometry>
        </mxCell>
        <mxCell id="UTH--3E0aOIOt3p0cTCI-83" value="0,n" style="edgeLabel;html=1;align=center;verticalAlign=middle;resizable=0;points=[];fontSize=16;" parent="UTH--3E0aOIOt3p0cTCI-80" vertex="1" connectable="0">
          <mxGeometry x="-0.1349" y="-2" relative="1" as="geometry">
            <mxPoint x="1" as="offset" />
          </mxGeometry>
        </mxCell>
        <mxCell id="UTH--3E0aOIOt3p0cTCI-18" value="Parties" style="rounded=0;whiteSpace=wrap;html=1;" parent="UTH--3E0aOIOt3p0cTCI-16" vertex="1">
          <mxGeometry width="200" height="20" as="geometry" />
        </mxCell>
        <mxCell id="UTH--3E0aOIOt3p0cTCI-19" value="&lt;div&gt;&lt;div&gt;DateHeure&lt;/div&gt;&lt;/div&gt;&lt;div&gt;Résultat&lt;/div&gt;&lt;div&gt;NombreErreurs&lt;/div&gt;" style="text;html=1;strokeColor=none;fillColor=none;align=left;verticalAlign=top;whiteSpace=wrap;rounded=0;" parent="UTH--3E0aOIOt3p0cTCI-16" vertex="1">
          <mxGeometry x="11" y="20" width="90" height="60" as="geometry" />
        </mxCell>
        <mxCell id="UTH--3E0aOIOt3p0cTCI-20" value="&lt;div&gt;&lt;div&gt;date&lt;/div&gt;&lt;/div&gt;&lt;div&gt;texte&lt;/div&gt;&lt;div&gt;numérique&lt;/div&gt;&lt;div&gt;&lt;br&gt;&lt;/div&gt;" style="text;html=1;strokeColor=none;fillColor=none;align=left;verticalAlign=top;whiteSpace=wrap;rounded=0;" parent="UTH--3E0aOIOt3p0cTCI-16" vertex="1">
          <mxGeometry x="101" y="20" width="90" height="50" as="geometry" />
        </mxCell>
        <mxCell id="UTH--3E0aOIOt3p0cTCI-26" value="" style="group" parent="1" vertex="1" connectable="0">
          <mxGeometry x="260" y="540" width="160" height="80" as="geometry" />
        </mxCell>
        <mxCell id="UTH--3E0aOIOt3p0cTCI-27" value="&lt;div style=&quot;box-sizing: border-box ; width: 100% ; padding: 2px&quot;&gt;&lt;br&gt;&lt;/div&gt;" style="verticalAlign=top;align=center;overflow=fill;html=1;rounded=0;shadow=0;comic=0;labelBackgroundColor=none;strokeColor=#000000;strokeWidth=1;fillColor=#ffffff;fontFamily=Verdana;fontSize=12;fontColor=#000000;" parent="UTH--3E0aOIOt3p0cTCI-26" vertex="1">
          <mxGeometry width="160" height="80" as="geometry" />
        </mxCell>
        <mxCell id="UTH--3E0aOIOt3p0cTCI-28" value="Mots" style="rounded=0;whiteSpace=wrap;html=1;" parent="UTH--3E0aOIOt3p0cTCI-26" vertex="1">
          <mxGeometry width="160" height="17.77777777777778" as="geometry" />
        </mxCell>
        <mxCell id="UTH--3E0aOIOt3p0cTCI-29" value="&lt;div&gt;&lt;div&gt;Valeur&lt;/div&gt;&lt;/div&gt;" style="text;html=1;strokeColor=none;fillColor=none;align=left;verticalAlign=top;whiteSpace=wrap;rounded=0;" parent="UTH--3E0aOIOt3p0cTCI-26" vertex="1">
          <mxGeometry x="8.8" y="17.77777777777778" width="72" height="53.33333333333333" as="geometry" />
        </mxCell>
        <mxCell id="UTH--3E0aOIOt3p0cTCI-30" value="&lt;div&gt;&lt;div&gt;texte&lt;/div&gt;&lt;/div&gt;" style="text;html=1;strokeColor=none;fillColor=none;align=left;verticalAlign=top;whiteSpace=wrap;rounded=0;" parent="UTH--3E0aOIOt3p0cTCI-26" vertex="1">
          <mxGeometry x="80.80000000000001" y="17.77777777777778" width="72" height="44.44444444444444" as="geometry" />
        </mxCell>
        <mxCell id="UTH--3E0aOIOt3p0cTCI-31" value="" style="group" parent="1" vertex="1" connectable="0">
          <mxGeometry x="110" y="60" width="200" height="90" as="geometry" />
        </mxCell>
        <mxCell id="UTH--3E0aOIOt3p0cTCI-32" value="&lt;div style=&quot;box-sizing: border-box ; width: 100% ; padding: 2px&quot;&gt;&lt;br&gt;&lt;/div&gt;" style="verticalAlign=top;align=center;overflow=fill;html=1;rounded=0;shadow=0;comic=0;labelBackgroundColor=none;strokeColor=#000000;strokeWidth=1;fillColor=#ffffff;fontFamily=Verdana;fontSize=12;fontColor=#000000;" parent="UTH--3E0aOIOt3p0cTCI-31" vertex="1">
          <mxGeometry width="200" height="90" as="geometry" />
        </mxCell>
        <mxCell id="UTH--3E0aOIOt3p0cTCI-33" value="Lettres" style="rounded=0;whiteSpace=wrap;html=1;" parent="UTH--3E0aOIOt3p0cTCI-31" vertex="1">
          <mxGeometry width="200" height="20" as="geometry" />
        </mxCell>
        <mxCell id="UTH--3E0aOIOt3p0cTCI-34" value="&lt;div&gt;&lt;div&gt;Valeur&lt;/div&gt;&lt;/div&gt;&lt;div&gt;EstCorrecte&lt;/div&gt;" style="text;html=1;strokeColor=none;fillColor=none;align=left;verticalAlign=top;whiteSpace=wrap;rounded=0;" parent="UTH--3E0aOIOt3p0cTCI-31" vertex="1">
          <mxGeometry x="10.999999999999998" y="20" width="90" height="60" as="geometry" />
        </mxCell>
        <mxCell id="UTH--3E0aOIOt3p0cTCI-35" value="&lt;div&gt;&lt;div&gt;texte&lt;/div&gt;&lt;/div&gt;&lt;div&gt;booleen&lt;/div&gt;" style="text;html=1;strokeColor=none;fillColor=none;align=left;verticalAlign=top;whiteSpace=wrap;rounded=0;" parent="UTH--3E0aOIOt3p0cTCI-31" vertex="1">
          <mxGeometry x="100.99999999999999" y="20" width="90" height="50.00000000000001" as="geometry" />
        </mxCell>
        <mxCell id="UTH--3E0aOIOt3p0cTCI-39" value="" style="group" parent="1" vertex="1" connectable="0">
          <mxGeometry x="-130" y="450" width="160" height="80" as="geometry" />
        </mxCell>
        <mxCell id="UTH--3E0aOIOt3p0cTCI-40" value="&lt;div style=&quot;box-sizing: border-box ; width: 100% ; padding: 2px&quot;&gt;&lt;br&gt;&lt;/div&gt;" style="verticalAlign=top;align=center;overflow=fill;html=1;rounded=0;shadow=0;comic=0;labelBackgroundColor=none;strokeColor=#000000;strokeWidth=1;fillColor=#ffffff;fontFamily=Verdana;fontSize=12;fontColor=#000000;" parent="UTH--3E0aOIOt3p0cTCI-39" vertex="1">
          <mxGeometry width="160" height="80" as="geometry" />
        </mxCell>
        <mxCell id="UTH--3E0aOIOt3p0cTCI-41" value="Thèmes" style="rounded=0;whiteSpace=wrap;html=1;" parent="UTH--3E0aOIOt3p0cTCI-39" vertex="1">
          <mxGeometry width="160" height="17.77777777777778" as="geometry" />
        </mxCell>
        <mxCell id="UTH--3E0aOIOt3p0cTCI-42" value="&lt;div&gt;&lt;div&gt;Nom&lt;/div&gt;&lt;/div&gt;" style="text;html=1;strokeColor=none;fillColor=none;align=left;verticalAlign=top;whiteSpace=wrap;rounded=0;" parent="UTH--3E0aOIOt3p0cTCI-39" vertex="1">
          <mxGeometry x="8.8" y="17.78" width="41.2" height="22.22" as="geometry" />
        </mxCell>
        <mxCell id="UTH--3E0aOIOt3p0cTCI-43" value="&lt;div&gt;&lt;div&gt;texte&lt;/div&gt;&lt;/div&gt;" style="text;html=1;strokeColor=none;fillColor=none;align=left;verticalAlign=top;whiteSpace=wrap;rounded=0;" parent="UTH--3E0aOIOt3p0cTCI-39" vertex="1">
          <mxGeometry x="80.8" y="17.78" width="39.2" height="22.22" as="geometry" />
        </mxCell>
        <mxCell id="UTH--3E0aOIOt3p0cTCI-48" style="edgeStyle=orthogonalEdgeStyle;rounded=0;orthogonalLoop=1;jettySize=auto;html=1;exitX=1;exitY=0.5;exitDx=0;exitDy=0;entryX=0;entryY=0.5;entryDx=0;entryDy=0;endArrow=none;endFill=0;" parent="1" source="UTH--3E0aOIOt3p0cTCI-12" target="UTH--3E0aOIOt3p0cTCI-17" edge="1">
          <mxGeometry relative="1" as="geometry" />
        </mxCell>
        <mxCell id="UTH--3E0aOIOt3p0cTCI-50" value="1,1" style="edgeLabel;html=1;align=center;verticalAlign=middle;resizable=0;points=[];fontSize=16;" parent="UTH--3E0aOIOt3p0cTCI-48" vertex="1" connectable="0">
          <mxGeometry x="-0.2471" y="-2" relative="1" as="geometry">
            <mxPoint as="offset" />
          </mxGeometry>
        </mxCell>
        <mxCell id="UTH--3E0aOIOt3p0cTCI-52" style="edgeStyle=orthogonalEdgeStyle;rounded=0;orthogonalLoop=1;jettySize=auto;html=1;exitX=1;exitY=0.5;exitDx=0;exitDy=0;entryX=0;entryY=0.5;entryDx=0;entryDy=0;endArrow=none;endFill=0;" parent="1" source="UTH--3E0aOIOt3p0cTCI-7" target="UTH--3E0aOIOt3p0cTCI-12" edge="1">
          <mxGeometry relative="1" as="geometry" />
        </mxCell>
        <mxCell id="UTH--3E0aOIOt3p0cTCI-53" value="1,n" style="edgeLabel;html=1;align=center;verticalAlign=middle;resizable=0;points=[];fontSize=16;" parent="UTH--3E0aOIOt3p0cTCI-52" vertex="1" connectable="0">
          <mxGeometry x="-0.02" y="1" relative="1" as="geometry">
            <mxPoint as="offset" />
          </mxGeometry>
        </mxCell>
        <mxCell id="UTH--3E0aOIOt3p0cTCI-55" value="" style="group" parent="1" vertex="1" connectable="0">
          <mxGeometry x="420" y="420" width="180" height="80" as="geometry" />
        </mxCell>
        <mxCell id="UTH--3E0aOIOt3p0cTCI-56" value="&lt;div style=&quot;box-sizing: border-box ; width: 100% ; padding: 2px&quot;&gt;&lt;br&gt;&lt;/div&gt;" style="verticalAlign=top;align=center;overflow=fill;html=1;rounded=1;shadow=0;comic=0;labelBackgroundColor=none;strokeColor=#000000;strokeWidth=1;fillColor=#ffffff;fontFamily=Verdana;fontSize=12;fontColor=#000000;" parent="UTH--3E0aOIOt3p0cTCI-55" vertex="1">
          <mxGeometry width="180" height="80" as="geometry" />
        </mxCell>
        <mxCell id="UTH--3E0aOIOt3p0cTCI-57" value="" style="endArrow=none;html=1;entryX=1;entryY=0.25;entryDx=0;entryDy=0;exitX=0;exitY=0.25;exitDx=0;exitDy=0;" parent="UTH--3E0aOIOt3p0cTCI-55" source="UTH--3E0aOIOt3p0cTCI-56" target="UTH--3E0aOIOt3p0cTCI-56" edge="1">
          <mxGeometry width="50" height="50" relative="1" as="geometry">
            <mxPoint x="-280" y="155" as="sourcePoint" />
            <mxPoint x="-230" y="105" as="targetPoint" />
          </mxGeometry>
        </mxCell>
        <mxCell id="UTH--3E0aOIOt3p0cTCI-58" value="Utiliser" style="text;html=1;strokeColor=none;fillColor=none;align=center;verticalAlign=middle;whiteSpace=wrap;rounded=0;" parent="UTH--3E0aOIOt3p0cTCI-55" vertex="1">
          <mxGeometry x="21" width="138" height="20" as="geometry" />
        </mxCell>
        <mxCell id="UTH--3E0aOIOt3p0cTCI-59" style="edgeStyle=orthogonalEdgeStyle;rounded=0;orthogonalLoop=1;jettySize=auto;html=1;exitX=0.5;exitY=1;exitDx=0;exitDy=0;endArrow=none;endFill=0;" parent="1" source="UTH--3E0aOIOt3p0cTCI-17" target="UTH--3E0aOIOt3p0cTCI-58" edge="1">
          <mxGeometry relative="1" as="geometry" />
        </mxCell>
        <mxCell id="UTH--3E0aOIOt3p0cTCI-61" value="1,1" style="edgeLabel;html=1;align=center;verticalAlign=middle;resizable=0;points=[];fontSize=16;" parent="UTH--3E0aOIOt3p0cTCI-59" vertex="1" connectable="0">
          <mxGeometry x="-0.1794" y="-1" relative="1" as="geometry">
            <mxPoint as="offset" />
          </mxGeometry>
        </mxCell>
        <mxCell id="UTH--3E0aOIOt3p0cTCI-60" value="&lt;font style=&quot;font-size: 16px;&quot;&gt;0,n&lt;/font&gt;" style="edgeStyle=orthogonalEdgeStyle;rounded=0;orthogonalLoop=1;jettySize=auto;html=1;exitX=0;exitY=0.5;exitDx=0;exitDy=0;entryX=0.441;entryY=0.129;entryDx=0;entryDy=0;entryPerimeter=0;endArrow=none;endFill=0;" parent="1" source="UTH--3E0aOIOt3p0cTCI-56" target="UTH--3E0aOIOt3p0cTCI-28" edge="1">
          <mxGeometry x="0.3908" relative="1" as="geometry">
            <mxPoint as="offset" />
          </mxGeometry>
        </mxCell>
        <mxCell id="UTH--3E0aOIOt3p0cTCI-63" value="" style="group" parent="1" vertex="1" connectable="0">
          <mxGeometry y="550" width="180" height="80" as="geometry" />
        </mxCell>
        <mxCell id="UTH--3E0aOIOt3p0cTCI-64" value="&lt;div style=&quot;box-sizing: border-box ; width: 100% ; padding: 2px&quot;&gt;&lt;br&gt;&lt;/div&gt;" style="verticalAlign=top;align=center;overflow=fill;html=1;rounded=1;shadow=0;comic=0;labelBackgroundColor=none;strokeColor=#000000;strokeWidth=1;fillColor=#ffffff;fontFamily=Verdana;fontSize=12;fontColor=#000000;" parent="UTH--3E0aOIOt3p0cTCI-63" vertex="1">
          <mxGeometry width="180" height="80" as="geometry" />
        </mxCell>
        <mxCell id="UTH--3E0aOIOt3p0cTCI-65" value="" style="endArrow=none;html=1;entryX=1;entryY=0.25;entryDx=0;entryDy=0;exitX=0;exitY=0.25;exitDx=0;exitDy=0;" parent="UTH--3E0aOIOt3p0cTCI-63" source="UTH--3E0aOIOt3p0cTCI-64" target="UTH--3E0aOIOt3p0cTCI-64" edge="1">
          <mxGeometry width="50" height="50" relative="1" as="geometry">
            <mxPoint x="-280" y="155" as="sourcePoint" />
            <mxPoint x="-230" y="105" as="targetPoint" />
          </mxGeometry>
        </mxCell>
        <mxCell id="UTH--3E0aOIOt3p0cTCI-66" value="est Associer" style="text;html=1;strokeColor=none;fillColor=none;align=center;verticalAlign=middle;whiteSpace=wrap;rounded=0;" parent="UTH--3E0aOIOt3p0cTCI-63" vertex="1">
          <mxGeometry x="21" width="138" height="20" as="geometry" />
        </mxCell>
        <mxCell id="UTH--3E0aOIOt3p0cTCI-69" style="edgeStyle=orthogonalEdgeStyle;rounded=0;orthogonalLoop=1;jettySize=auto;html=1;exitX=0;exitY=0.5;exitDx=0;exitDy=0;entryX=1;entryY=0.5;entryDx=0;entryDy=0;endArrow=none;endFill=0;" parent="1" source="UTH--3E0aOIOt3p0cTCI-27" target="UTH--3E0aOIOt3p0cTCI-64" edge="1">
          <mxGeometry relative="1" as="geometry" />
        </mxCell>
        <mxCell id="UTH--3E0aOIOt3p0cTCI-72" value="1,1" style="edgeLabel;html=1;align=center;verticalAlign=middle;resizable=0;points=[];fontSize=16;" parent="UTH--3E0aOIOt3p0cTCI-69" vertex="1" connectable="0">
          <mxGeometry x="-0.4296" y="2" relative="1" as="geometry">
            <mxPoint as="offset" />
          </mxGeometry>
        </mxCell>
        <mxCell id="UTH--3E0aOIOt3p0cTCI-70" style="edgeStyle=orthogonalEdgeStyle;rounded=0;orthogonalLoop=1;jettySize=auto;html=1;exitX=0;exitY=0.5;exitDx=0;exitDy=0;entryX=0.166;entryY=0.964;entryDx=0;entryDy=0;entryPerimeter=0;endArrow=none;endFill=0;" parent="1" source="UTH--3E0aOIOt3p0cTCI-64" target="UTH--3E0aOIOt3p0cTCI-40" edge="1">
          <mxGeometry relative="1" as="geometry" />
        </mxCell>
        <mxCell id="UTH--3E0aOIOt3p0cTCI-71" value="Text" style="edgeLabel;html=1;align=center;verticalAlign=middle;resizable=0;points=[];" parent="UTH--3E0aOIOt3p0cTCI-70" vertex="1" connectable="0">
          <mxGeometry x="0.4753" y="-2" relative="1" as="geometry">
            <mxPoint as="offset" />
          </mxGeometry>
        </mxCell>
        <mxCell id="UTH--3E0aOIOt3p0cTCI-73" value="1,n" style="edgeLabel;html=1;align=center;verticalAlign=middle;resizable=0;points=[];fontSize=16;" parent="UTH--3E0aOIOt3p0cTCI-70" vertex="1" connectable="0">
          <mxGeometry x="0.4515" y="-4" relative="1" as="geometry">
            <mxPoint as="offset" />
          </mxGeometry>
        </mxCell>
        <mxCell id="UTH--3E0aOIOt3p0cTCI-75" value="" style="group" parent="1" vertex="1" connectable="0">
          <mxGeometry x="440" y="100" width="180" height="80" as="geometry" />
        </mxCell>
        <mxCell id="UTH--3E0aOIOt3p0cTCI-76" value="&lt;div style=&quot;box-sizing: border-box ; width: 100% ; padding: 2px&quot;&gt;&lt;br&gt;&lt;/div&gt;" style="verticalAlign=top;align=center;overflow=fill;html=1;rounded=1;shadow=0;comic=0;labelBackgroundColor=none;strokeColor=#000000;strokeWidth=1;fillColor=#ffffff;fontFamily=Verdana;fontSize=12;fontColor=#000000;" parent="UTH--3E0aOIOt3p0cTCI-75" vertex="1">
          <mxGeometry width="180" height="80" as="geometry" />
        </mxCell>
        <mxCell id="UTH--3E0aOIOt3p0cTCI-77" value="" style="endArrow=none;html=1;entryX=1;entryY=0.25;entryDx=0;entryDy=0;exitX=0;exitY=0.25;exitDx=0;exitDy=0;" parent="UTH--3E0aOIOt3p0cTCI-75" source="UTH--3E0aOIOt3p0cTCI-76" target="UTH--3E0aOIOt3p0cTCI-76" edge="1">
          <mxGeometry width="50" height="50" relative="1" as="geometry">
            <mxPoint x="-280" y="155" as="sourcePoint" />
            <mxPoint x="-230" y="105" as="targetPoint" />
          </mxGeometry>
        </mxCell>
        <mxCell id="UTH--3E0aOIOt3p0cTCI-78" value="est lier" style="text;html=1;strokeColor=none;fillColor=none;align=center;verticalAlign=middle;whiteSpace=wrap;rounded=0;" parent="UTH--3E0aOIOt3p0cTCI-75" vertex="1">
          <mxGeometry x="21" width="138" height="20" as="geometry" />
        </mxCell>
        <mxCell id="UTH--3E0aOIOt3p0cTCI-81" style="edgeStyle=orthogonalEdgeStyle;rounded=0;orthogonalLoop=1;jettySize=auto;html=1;exitX=1;exitY=0.5;exitDx=0;exitDy=0;entryX=0;entryY=0.5;entryDx=0;entryDy=0;endArrow=none;endFill=0;" parent="1" source="UTH--3E0aOIOt3p0cTCI-32" target="UTH--3E0aOIOt3p0cTCI-76" edge="1">
          <mxGeometry relative="1" as="geometry" />
        </mxCell>
        <mxCell id="UTH--3E0aOIOt3p0cTCI-82" value="1,n" style="edgeLabel;html=1;align=center;verticalAlign=middle;resizable=0;points=[];fontSize=16;" parent="UTH--3E0aOIOt3p0cTCI-81" vertex="1" connectable="0">
          <mxGeometry x="-0.0249" y="4" relative="1" as="geometry">
            <mxPoint as="offset" />
          </mxGeometry>
        </mxCell>
        <mxCell id="vLgzXVc9cQqr-7dp8IWG-1" value="" style="group" parent="1" vertex="1" connectable="0">
          <mxGeometry x="80" y="380" width="180" height="80" as="geometry" />
        </mxCell>
        <mxCell id="vLgzXVc9cQqr-7dp8IWG-2" value="&lt;div style=&quot;box-sizing: border-box ; width: 100% ; padding: 2px&quot;&gt;&lt;br&gt;&lt;/div&gt;" style="verticalAlign=top;align=center;overflow=fill;html=1;rounded=1;shadow=0;comic=0;labelBackgroundColor=none;strokeColor=#000000;strokeWidth=1;fillColor=#ffffff;fontFamily=Verdana;fontSize=12;fontColor=#000000;" parent="vLgzXVc9cQqr-7dp8IWG-1" vertex="1">
          <mxGeometry width="180" height="80" as="geometry" />
        </mxCell>
        <mxCell id="vLgzXVc9cQqr-7dp8IWG-3" value="" style="endArrow=none;html=1;entryX=1;entryY=0.25;entryDx=0;entryDy=0;exitX=0;exitY=0.25;exitDx=0;exitDy=0;" parent="vLgzXVc9cQqr-7dp8IWG-1" source="vLgzXVc9cQqr-7dp8IWG-2" target="vLgzXVc9cQqr-7dp8IWG-2" edge="1">
          <mxGeometry width="50" height="50" relative="1" as="geometry">
            <mxPoint x="-280" y="155" as="sourcePoint" />
            <mxPoint x="-230" y="105" as="targetPoint" />
          </mxGeometry>
        </mxCell>
        <mxCell id="vLgzXVc9cQqr-7dp8IWG-4" value="Préférer" style="text;html=1;strokeColor=none;fillColor=none;align=center;verticalAlign=middle;whiteSpace=wrap;rounded=0;" parent="vLgzXVc9cQqr-7dp8IWG-1" vertex="1">
          <mxGeometry x="21" width="138" height="20" as="geometry" />
        </mxCell>
        <mxCell id="vLgzXVc9cQqr-7dp8IWG-6" value="&lt;font style=&quot;font-size: 16px;&quot;&gt;0,1&lt;/font&gt;" style="edgeStyle=orthogonalEdgeStyle;rounded=0;orthogonalLoop=1;jettySize=auto;html=1;exitX=0.5;exitY=1;exitDx=0;exitDy=0;entryX=0.5;entryY=0;entryDx=0;entryDy=0;endArrow=none;endFill=0;" parent="1" source="UTH--3E0aOIOt3p0cTCI-7" target="vLgzXVc9cQqr-7dp8IWG-4" edge="1">
          <mxGeometry relative="1" as="geometry" />
        </mxCell>
        <mxCell id="vLgzXVc9cQqr-7dp8IWG-7" style="edgeStyle=orthogonalEdgeStyle;rounded=0;orthogonalLoop=1;jettySize=auto;html=1;exitX=0.5;exitY=1;exitDx=0;exitDy=0;entryX=1;entryY=0.625;entryDx=0;entryDy=0;entryPerimeter=0;endArrow=none;endFill=0;" parent="1" source="vLgzXVc9cQqr-7dp8IWG-2" target="UTH--3E0aOIOt3p0cTCI-40" edge="1">
          <mxGeometry relative="1" as="geometry" />
        </mxCell>
        <mxCell id="vLgzXVc9cQqr-7dp8IWG-8" value="0,n" style="edgeLabel;html=1;align=center;verticalAlign=middle;resizable=0;points=[];fontSize=16;" parent="vLgzXVc9cQqr-7dp8IWG-7" vertex="1" connectable="0">
          <mxGeometry x="0.1444" y="-1" relative="1" as="geometry">
            <mxPoint as="offset" />
          </mxGeometry>
        </mxCell>
        <mxCell id="uMmu4hezJXCb0uGMAvcn-7" value="" style="shape=table;html=1;whiteSpace=wrap;startSize=0;container=1;collapsible=0;childLayout=tableLayout;" vertex="1" parent="1">
          <mxGeometry x="-360" y="770" width="320" height="110" as="geometry" />
        </mxCell>
        <mxCell id="uMmu4hezJXCb0uGMAvcn-8" value="" style="shape=partialRectangle;html=1;whiteSpace=wrap;collapsible=0;dropTarget=0;pointerEvents=0;fillColor=none;top=0;left=0;bottom=0;right=0;points=[[0,0.5],[1,0.5]];portConstraint=eastwest;" vertex="1" parent="uMmu4hezJXCb0uGMAvcn-7">
          <mxGeometry width="320" height="28" as="geometry" />
        </mxCell>
        <mxCell id="uMmu4hezJXCb0uGMAvcn-9" value="Projet" style="shape=partialRectangle;html=1;whiteSpace=wrap;connectable=0;overflow=hidden;fillColor=none;top=0;left=0;bottom=0;right=0;" vertex="1" parent="uMmu4hezJXCb0uGMAvcn-8">
          <mxGeometry width="100" height="28" as="geometry">
            <mxRectangle width="100" height="28" as="alternateBounds" />
          </mxGeometry>
        </mxCell>
        <mxCell id="uMmu4hezJXCb0uGMAvcn-10" value="Jeu du Pendu" style="shape=partialRectangle;html=1;whiteSpace=wrap;connectable=0;overflow=hidden;fillColor=none;top=0;left=0;bottom=0;right=0;" vertex="1" parent="uMmu4hezJXCb0uGMAvcn-8">
          <mxGeometry x="100" width="220" height="28" as="geometry">
            <mxRectangle width="220" height="28" as="alternateBounds" />
          </mxGeometry>
        </mxCell>
        <mxCell id="uMmu4hezJXCb0uGMAvcn-11" value="" style="shape=partialRectangle;html=1;whiteSpace=wrap;collapsible=0;dropTarget=0;pointerEvents=0;fillColor=none;top=0;left=0;bottom=0;right=0;points=[[0,0.5],[1,0.5]];portConstraint=eastwest;" vertex="1" parent="uMmu4hezJXCb0uGMAvcn-7">
          <mxGeometry y="28" width="320" height="27" as="geometry" />
        </mxCell>
        <mxCell id="uMmu4hezJXCb0uGMAvcn-12" value="Titre" style="shape=partialRectangle;html=1;whiteSpace=wrap;connectable=0;overflow=hidden;fillColor=none;top=0;left=0;bottom=0;right=0;" vertex="1" parent="uMmu4hezJXCb0uGMAvcn-11">
          <mxGeometry width="100" height="27" as="geometry">
            <mxRectangle width="100" height="27" as="alternateBounds" />
          </mxGeometry>
        </mxCell>
        <mxCell id="uMmu4hezJXCb0uGMAvcn-13" value="MCD" style="shape=partialRectangle;html=1;whiteSpace=wrap;connectable=0;overflow=hidden;fillColor=none;top=0;left=0;bottom=0;right=0;" vertex="1" parent="uMmu4hezJXCb0uGMAvcn-11">
          <mxGeometry x="100" width="220" height="27" as="geometry">
            <mxRectangle width="220" height="27" as="alternateBounds" />
          </mxGeometry>
        </mxCell>
        <mxCell id="uMmu4hezJXCb0uGMAvcn-14" value="" style="shape=partialRectangle;html=1;whiteSpace=wrap;collapsible=0;dropTarget=0;pointerEvents=0;fillColor=none;top=0;left=0;bottom=0;right=0;points=[[0,0.5],[1,0.5]];portConstraint=eastwest;" vertex="1" parent="uMmu4hezJXCb0uGMAvcn-7">
          <mxGeometry y="55" width="320" height="28" as="geometry" />
        </mxCell>
        <mxCell id="uMmu4hezJXCb0uGMAvcn-15" value="Auteurs" style="shape=partialRectangle;html=1;whiteSpace=wrap;connectable=0;overflow=hidden;fillColor=none;top=0;left=0;bottom=0;right=0;" vertex="1" parent="uMmu4hezJXCb0uGMAvcn-14">
          <mxGeometry width="100" height="28" as="geometry">
            <mxRectangle width="100" height="28" as="alternateBounds" />
          </mxGeometry>
        </mxCell>
        <mxCell id="uMmu4hezJXCb0uGMAvcn-16" value="Anthony Simond" style="shape=partialRectangle;html=1;whiteSpace=wrap;connectable=0;overflow=hidden;fillColor=none;top=0;left=0;bottom=0;right=0;" vertex="1" parent="uMmu4hezJXCb0uGMAvcn-14">
          <mxGeometry x="100" width="220" height="28" as="geometry">
            <mxRectangle width="220" height="28" as="alternateBounds" />
          </mxGeometry>
        </mxCell>
        <mxCell id="uMmu4hezJXCb0uGMAvcn-17" value="" style="shape=partialRectangle;html=1;whiteSpace=wrap;collapsible=0;dropTarget=0;pointerEvents=0;fillColor=none;top=0;left=0;bottom=0;right=0;points=[[0,0.5],[1,0.5]];portConstraint=eastwest;" vertex="1" parent="uMmu4hezJXCb0uGMAvcn-7">
          <mxGeometry y="83" width="320" height="27" as="geometry" />
        </mxCell>
        <mxCell id="uMmu4hezJXCb0uGMAvcn-18" value="Version" style="shape=partialRectangle;html=1;whiteSpace=wrap;connectable=0;overflow=hidden;fillColor=none;top=0;left=0;bottom=0;right=0;" vertex="1" parent="uMmu4hezJXCb0uGMAvcn-17">
          <mxGeometry width="100" height="27" as="geometry">
            <mxRectangle width="100" height="27" as="alternateBounds" />
          </mxGeometry>
        </mxCell>
        <mxCell id="uMmu4hezJXCb0uGMAvcn-19" value="2.0 12.09.2025" style="shape=partialRectangle;html=1;whiteSpace=wrap;connectable=0;overflow=hidden;fillColor=none;top=0;left=0;bottom=0;right=0;" vertex="1" parent="uMmu4hezJXCb0uGMAvcn-17">
          <mxGeometry x="100" width="220" height="27" as="geometry">
            <mxRectangle width="220" height="27" as="alternateBounds" />
          </mxGeometry>
        </mxCell>
      </root>
    </mxGraphModel>
  </diagram>
</mxfile>
